<?xml version="1.0" encoding="utf-8"?>
<!-- Generator: Adobe Illustrator 16.0.3, SVG Export Plug-In . SVG Version: 6.00 Build 0)  -->
<!DOCTYPE svg PUBLIC "-//W3C//DTD SVG 1.1//EN" "http://www.w3.org/Graphics/SVG/1.1/DTD/svg11.dtd">
<svg version="1.1" id="Layer_1" xmlns="http://www.w3.org/2000/svg" xmlns:xlink="http://www.w3.org/1999/xlink" x="0px" y="0px"
	 width="36px" height="36px" viewBox="0 0 36 36" enable-background="new 0 0 36 36" xml:space="preserve">
<path d="M29.776,13.315c0-0.356,0.004-0.709,0.006-1.062v-0.004l0,0c0.008-0.755,0.014-1.501-0.026-2.246
	c-0.023-0.41-0.179-0.89-0.44-1.197c-1.895-2.228-3.816-4.432-5.771-6.605c-0.238-0.265-0.729-0.429-1.104-0.432
	c-4.851-0.028-9.702-0.02-14.552-0.017c-1.279,0-1.672,0.39-1.672,1.646c-0.002,3.051-0.001,6.101-0.001,9.151
	c0,0.266,0,0.531,0,0.844c-0.001,0-0.001,0-0.002,0v13.106c0.001,0,0.002,0,0.003,0c0,1.044-0.001,2.066-0.003,3.081v0.326
	c0,0.971,0.001,1.934,0.006,2.896c0.005,0.946,0.494,1.445,1.425,1.445c6.901,0.006,13.803,0.006,20.704,0
	c0.932,0,1.42-0.498,1.426-1.445c0.012-1.824,0.004-3.65,0.004-5.476c0-0.267,0-0.532,0-0.784c0.002,0,0.004,0,0.006,0V13.317
	C29.78,13.316,29.778,13.315,29.776,13.315z"/>
<path fill="#FFFFFF" d="M28.521,13.332c-0.005,0-0.011,0-0.015,0c0,6.379,0,12.754,0,19.263c-7.014,0-13.999,0-21.026,0
	c0-6.951,0-13.748,0-20.747c0.008,0,0.015,0,0.023,0c0-2.897,0-5.819,0-8.816c4.913,0,9.798,0,14.771,0c0,1.026,0,2.019,0,3.011
	c0,1.024-0.004,2.049,0,3.073c0.004,0.897,0.109,1.008,0.985,1.011c1.499,0.006,2.997,0,4.497,0.004
	c0.242,0,0.484,0.023,0.765,0.039C28.521,11.243,28.521,12.256,28.521,13.332z"/>
<rect x="8.984" y="11.519" fill="#F9ED32" width="18.031" height="1.708"/>
<rect x="8.984" y="15.019" fill="#F9ED32" width="18.031" height="1.708"/>
<rect x="8.984" y="18.519" fill="#F9ED32" width="18.031" height="1.709"/>
<g>
	<rect x="9.099" y="23.05" fill="#49B0E4" width="17.803" height="7.959"/>
</g>
<polyline fill="#059447" points="26.771,30.896 9.229,30.896 9.229,29.542 12.5,26 15.583,29.358 17.544,27.25 19.625,29.358 
	22.128,25.084 24.544,29.542 26.771,27.708 "/>
<g>
	<path fill="#F9ED32" d="M25.901,24.05v5.959H10.099V24.05H25.901 M26.901,23.05H9.099v7.959h17.803V23.05L26.901,23.05z"/>
</g>
<line fill="none" x1="18" y1="31.009" x2="18" y2="27.708"/>
</svg>
